<?xml version="1.0" encoding="utf-8"?>
<svg viewBox="0 0 500 500" xmlns="http://www.w3.org/2000/svg" xmlns:bx="https://boxy-svg.com">
  <defs>
    <bx:grid x="-149.904" y="-242.961" width="30.756" height="30.756"/>
  </defs>
  <g transform="matrix(1, 0, 0, 1, -246.048019, -174.160599)">
    <g id="layer1" transform="matrix(0.700148, 0, 0, 0.700148, 238.493332, 47.893589)" style="">
      <g id="g3052">
        <path style="fill-opacity: 1; stroke: rgb(255, 255, 255); stroke-width: 0; stroke-miterlimit: 4; stroke-opacity: 1; stroke-dasharray: none; fill: rgb(50, 108, 229);" d="m 365.3125,184.8125 a 46.724621,46.342246 0 0 0 -17.90625,4.53125 l -244.34375,116.75 a 46.724621,46.342246 0 0 0 -25.28125,31.4375 L 17.5,599.78125 A 46.724621,46.342246 0 0 0 23.84375,635.3125 46.724621,46.342246 0 0 0 26.5,639 l 169.125,210.28125 a 46.724621,46.342246 0 0 0 36.53125,17.4375 L 503.375,866.65625 A 46.724621,46.342246 0 0 0 539.90625,849.25 L 708.96875,638.9375 A 46.724621,46.342246 0 0 0 718,599.71875 l -60.375,-262.25 a 46.724621,46.342246 0 0 0 -25.28125,-31.4375 l -244.375,-116.6875 A 46.724621,46.342246 0 0 0 365.3125,184.8125 z" id="path3055"/>
      </g>
    </g>
    <g transform="matrix(0.172352, -0.172352, 0.172352, 0.172352, 241.19812, 62.640438)" style="transform-origin: 255.892px 255.891px;">
      <g>
        <path d="M498.223,80.207c-11.413-15.04-32.32-15.467-49.067-15.787h-1.813c0-0.853,0-1.813,0-2.667&#10;&#9;&#9;&#9;c0-16.107,0-36.053-14.933-47.36c-28.8-21.653-69.867-18.56-93.44,7.147c-20.16,21.867-24.64,53.333-11.093,78.4&#10;&#9;&#9;&#9;c2.453,4.48,1.92,9.6-1.173,12.693l-214.4,214.4c-3.2,3.2-8.107,3.84-12.053,1.493c-26.133-14.613-58.56-9.387-80.96,12.907&#10;&#9;&#9;&#9;C9.263,351.781,2.756,365.007,0.943,379.301c-2.133,15.467,1.173,29.013,10.027,40.213c13.973,17.707,37.867,24.533,53.44,27.093&#10;&#9;&#9;&#9;c0,1.067,0,2.133,0,3.307c0,15.893,0,35.52,12.587,46.4c11.733,10.027,26.667,15.573,42.027,15.467&#10;&#9;&#9;&#9;c20.373-0.107,39.68-8.853,53.227-24c22.4-24.853,24.96-54.4,7.04-81.173c-2.667-3.947-2.24-9.28,1.067-12.693l213.12-213.333&#10;&#9;&#9;&#9;c3.307-3.307,8.533-3.84,12.48-1.173c27.52,18.56,58.88,15.147,83.84-9.067C515.076,145.807,518.703,107.087,498.223,80.207z&#10;&#9;&#9;&#9; M475.716,155.514c-10.24,9.92-31.36,24.107-57.173,6.72c-12.373-8.32-28.907-6.72-39.467,3.84L165.743,379.407&#10;&#9;&#9;&#9;c-10.56,10.667-12.053,27.2-3.733,39.68c15.68,23.467,5.867,42.88-5.227,55.04c-17.813,19.733-47.147,22.72-65.6,6.72&#10;&#9;&#9;&#9;c-5.12-4.48-5.227-20.053-5.227-30.4c0-5.12,0-9.813-0.427-13.653c-0.533-5.12-4.48-9.067-9.6-9.6&#10;&#9;&#9;&#9;c-21.76-2.027-39.68-9.707-48.107-20.267c-5.227-6.507-7.04-14.4-5.653-24c1.28-9.707,5.653-18.773,12.373-25.813&#10;&#9;&#9;&#9;c9.707-9.707,22.187-14.827,34.453-14.827c7.36,0,14.72,1.92,21.12,5.44c12.267,6.827,27.52,4.8,37.44-5.12l214.613-214.613&#10;&#9;&#9;&#9;c9.92-9.92,11.84-25.173,4.907-37.973c-9.173-16.96-5.973-38.507,8-53.76c16.32-17.707,44.907-19.627,65.067-4.48&#10;&#9;&#9;&#9;c6.507,4.907,6.4,18.347,6.4,30.293c0,5.013,0,9.813,0.427,13.973c0.533,5.12,4.48,9.067,9.6,9.6&#10;&#9;&#9;&#9;c3.733,0.32,8.107,0.427,12.693,0.533c12.16,0.213,27.413,0.533,32.533,7.36C496.196,112.207,493.529,138.234,475.716,155.514z" style="fill: rgb(255, 255, 255);"/>
      </g>
    </g>
    <g transform="matrix(0.242176, 0.027592, -0.027592, 0.242176, 332.764893, 104.435471)" style="transform-origin: 255.892px 255.891px;">
      <g>
        <path d="M498.223,80.207c-11.413-15.04-32.32-15.467-49.067-15.787h-1.813c0-0.853,0-1.813,0-2.667&#10;&#9;&#9;&#9;c0-16.107,0-36.053-14.933-47.36c-28.8-21.653-69.867-18.56-93.44,7.147c-20.16,21.867-24.64,53.333-11.093,78.4&#10;&#9;&#9;&#9;c2.453,4.48,1.92,9.6-1.173,12.693l-214.4,214.4c-3.2,3.2-8.107,3.84-12.053,1.493c-26.133-14.613-58.56-9.387-80.96,12.907&#10;&#9;&#9;&#9;C9.263,351.781,2.756,365.007,0.943,379.301c-2.133,15.467,1.173,29.013,10.027,40.213c13.973,17.707,37.867,24.533,53.44,27.093&#10;&#9;&#9;&#9;c0,1.067,0,2.133,0,3.307c0,15.893,0,35.52,12.587,46.4c11.733,10.027,26.667,15.573,42.027,15.467&#10;&#9;&#9;&#9;c20.373-0.107,39.68-8.853,53.227-24c22.4-24.853,24.96-54.4,7.04-81.173c-2.667-3.947-2.24-9.28,1.067-12.693l213.12-213.333&#10;&#9;&#9;&#9;c3.307-3.307,8.533-3.84,12.48-1.173c27.52,18.56,58.88,15.147,83.84-9.067C515.076,145.807,518.703,107.087,498.223,80.207z&#10;&#9;&#9;&#9; M475.716,155.514c-10.24,9.92-31.36,24.107-57.173,6.72c-12.373-8.32-28.907-6.72-39.467,3.84L165.743,379.407&#10;&#9;&#9;&#9;c-10.56,10.667-12.053,27.2-3.733,39.68c15.68,23.467,5.867,42.88-5.227,55.04c-17.813,19.733-47.147,22.72-65.6,6.72&#10;&#9;&#9;&#9;c-5.12-4.48-5.227-20.053-5.227-30.4c0-5.12,0-9.813-0.427-13.653c-0.533-5.12-4.48-9.067-9.6-9.6&#10;&#9;&#9;&#9;c-21.76-2.027-39.68-9.707-48.107-20.267c-5.227-6.507-7.04-14.4-5.653-24c1.28-9.707,5.653-18.773,12.373-25.813&#10;&#9;&#9;&#9;c9.707-9.707,22.187-14.827,34.453-14.827c7.36,0,14.72,1.92,21.12,5.44c12.267,6.827,27.52,4.8,37.44-5.12l214.613-214.613&#10;&#9;&#9;&#9;c9.92-9.92,11.84-25.173,4.907-37.973c-9.173-16.96-5.973-38.507,8-53.76c16.32-17.707,44.907-19.627,65.067-4.48&#10;&#9;&#9;&#9;c6.507,4.907,6.4,18.347,6.4,30.293c0,5.013,0,9.813,0.427,13.973c0.533,5.12,4.48,9.067,9.6,9.6&#10;&#9;&#9;&#9;c3.733,0.32,8.107,0.427,12.693,0.533c12.16,0.213,27.413,0.533,32.533,7.36C496.196,112.207,493.529,138.234,475.716,155.514z" style="fill: rgb(255, 255, 255);"/>
      </g>
    </g>
    <g transform="matrix(0.129164, 0.206706, -0.206706, 0.129164, 356.741486, 208.220535)" style="transform-origin: 255.892px 255.891px;">
      <g>
        <path d="M498.223,80.207c-11.413-15.04-32.32-15.467-49.067-15.787h-1.813c0-0.853,0-1.813,0-2.667&#10;&#9;&#9;&#9;c0-16.107,0-36.053-14.933-47.36c-28.8-21.653-69.867-18.56-93.44,7.147c-20.16,21.867-24.64,53.333-11.093,78.4&#10;&#9;&#9;&#9;c2.453,4.48,1.92,9.6-1.173,12.693l-214.4,214.4c-3.2,3.2-8.107,3.84-12.053,1.493c-26.133-14.613-58.56-9.387-80.96,12.907&#10;&#9;&#9;&#9;C9.263,351.781,2.756,365.007,0.943,379.301c-2.133,15.467,1.173,29.013,10.027,40.213c13.973,17.707,37.867,24.533,53.44,27.093&#10;&#9;&#9;&#9;c0,1.067,0,2.133,0,3.307c0,15.893,0,35.52,12.587,46.4c11.733,10.027,26.667,15.573,42.027,15.467&#10;&#9;&#9;&#9;c20.373-0.107,39.68-8.853,53.227-24c22.4-24.853,24.96-54.4,7.04-81.173c-2.667-3.947-2.24-9.28,1.067-12.693l213.12-213.333&#10;&#9;&#9;&#9;c3.307-3.307,8.533-3.84,12.48-1.173c27.52,18.56,58.88,15.147,83.84-9.067C515.076,145.807,518.703,107.087,498.223,80.207z&#10;&#9;&#9;&#9; M475.716,155.514c-10.24,9.92-31.36,24.107-57.173,6.72c-12.373-8.32-28.907-6.72-39.467,3.84L165.743,379.407&#10;&#9;&#9;&#9;c-10.56,10.667-12.053,27.2-3.733,39.68c15.68,23.467,5.867,42.88-5.227,55.04c-17.813,19.733-47.147,22.72-65.6,6.72&#10;&#9;&#9;&#9;c-5.12-4.48-5.227-20.053-5.227-30.4c0-5.12,0-9.813-0.427-13.653c-0.533-5.12-4.48-9.067-9.6-9.6&#10;&#9;&#9;&#9;c-21.76-2.027-39.68-9.707-48.107-20.267c-5.227-6.507-7.04-14.4-5.653-24c1.28-9.707,5.653-18.773,12.373-25.813&#10;&#9;&#9;&#9;c9.707-9.707,22.187-14.827,34.453-14.827c7.36,0,14.72,1.92,21.12,5.44c12.267,6.827,27.52,4.8,37.44-5.12l214.613-214.613&#10;&#9;&#9;&#9;c9.92-9.92,11.84-25.173,4.907-37.973c-9.173-16.96-5.973-38.507,8-53.76c16.32-17.707,44.907-19.627,65.067-4.48&#10;&#9;&#9;&#9;c6.507,4.907,6.4,18.347,6.4,30.293c0,5.013,0,9.813,0.427,13.973c0.533,5.12,4.48,9.067,9.6,9.6&#10;&#9;&#9;&#9;c3.733,0.32,8.107,0.427,12.693,0.533c12.16,0.213,27.413,0.533,32.533,7.36C496.196,112.207,493.529,138.234,475.716,155.514z" style="fill: rgb(255, 255, 255);"/>
      </g>
    </g>
    <g transform="matrix(-0.230464, 0.079355, -0.079355, -0.230464, 185.771957, 289.218262)" style="transform-origin: 255.892px 255.891px;">
      <g>
        <path d="M498.223,80.207c-11.413-15.04-32.32-15.467-49.067-15.787h-1.813c0-0.853,0-1.813,0-2.667&#10;&#9;&#9;&#9;c0-16.107,0-36.053-14.933-47.36c-28.8-21.653-69.867-18.56-93.44,7.147c-20.16,21.867-24.64,53.333-11.093,78.4&#10;&#9;&#9;&#9;c2.453,4.48,1.92,9.6-1.173,12.693l-214.4,214.4c-3.2,3.2-8.107,3.84-12.053,1.493c-26.133-14.613-58.56-9.387-80.96,12.907&#10;&#9;&#9;&#9;C9.263,351.781,2.756,365.007,0.943,379.301c-2.133,15.467,1.173,29.013,10.027,40.213c13.973,17.707,37.867,24.533,53.44,27.093&#10;&#9;&#9;&#9;c0,1.067,0,2.133,0,3.307c0,15.893,0,35.52,12.587,46.4c11.733,10.027,26.667,15.573,42.027,15.467&#10;&#9;&#9;&#9;c20.373-0.107,39.68-8.853,53.227-24c22.4-24.853,24.96-54.4,7.04-81.173c-2.667-3.947-2.24-9.28,1.067-12.693l213.12-213.333&#10;&#9;&#9;&#9;c3.307-3.307,8.533-3.84,12.48-1.173c27.52,18.56,58.88,15.147,83.84-9.067C515.076,145.807,518.703,107.087,498.223,80.207z&#10;&#9;&#9;&#9; M475.716,155.514c-10.24,9.92-31.36,24.107-57.173,6.72c-12.373-8.32-28.907-6.72-39.467,3.84L165.743,379.407&#10;&#9;&#9;&#9;c-10.56,10.667-12.053,27.2-3.733,39.68c15.68,23.467,5.867,42.88-5.227,55.04c-17.813,19.733-47.147,22.72-65.6,6.72&#10;&#9;&#9;&#9;c-5.12-4.48-5.227-20.053-5.227-30.4c0-5.12,0-9.813-0.427-13.653c-0.533-5.12-4.48-9.067-9.6-9.6&#10;&#9;&#9;&#9;c-21.76-2.027-39.68-9.707-48.107-20.267c-5.227-6.507-7.04-14.4-5.653-24c1.28-9.707,5.653-18.773,12.373-25.813&#10;&#9;&#9;&#9;c9.707-9.707,22.187-14.827,34.453-14.827c7.36,0,14.72,1.92,21.12,5.44c12.267,6.827,27.52,4.8,37.44-5.12l214.613-214.613&#10;&#9;&#9;&#9;c9.92-9.92,11.84-25.173,4.907-37.973c-9.173-16.96-5.973-38.507,8-53.76c16.32-17.707,44.907-19.627,65.067-4.48&#10;&#9;&#9;&#9;c6.507,4.907,6.4,18.347,6.4,30.293c0,5.013,0,9.813,0.427,13.973c0.533,5.12,4.48,9.067,9.6,9.6&#10;&#9;&#9;&#9;c3.733,0.32,8.107,0.427,12.693,0.533c12.16,0.213,27.413,0.533,32.533,7.36C496.196,112.207,493.529,138.234,475.716,155.514z" style="fill: rgb(255, 255, 255);"/>
      </g>
    </g>
    <g transform="matrix(-0.205571, -0.130963, 0.130963, -0.205571, 123.839096, 207.197021)" style="transform-origin: 255.892px 255.891px;">
      <g>
        <path d="M498.223,80.207c-11.413-15.04-32.32-15.467-49.067-15.787h-1.813c0-0.853,0-1.813,0-2.667&#10;&#9;&#9;&#9;c0-16.107,0-36.053-14.933-47.36c-28.8-21.653-69.867-18.56-93.44,7.147c-20.16,21.867-24.64,53.333-11.093,78.4&#10;&#9;&#9;&#9;c2.453,4.48,1.92,9.6-1.173,12.693l-214.4,214.4c-3.2,3.2-8.107,3.84-12.053,1.493c-26.133-14.613-58.56-9.387-80.96,12.907&#10;&#9;&#9;&#9;C9.263,351.781,2.756,365.007,0.943,379.301c-2.133,15.467,1.173,29.013,10.027,40.213c13.973,17.707,37.867,24.533,53.44,27.093&#10;&#9;&#9;&#9;c0,1.067,0,2.133,0,3.307c0,15.893,0,35.52,12.587,46.4c11.733,10.027,26.667,15.573,42.027,15.467&#10;&#9;&#9;&#9;c20.373-0.107,39.68-8.853,53.227-24c22.4-24.853,24.96-54.4,7.04-81.173c-2.667-3.947-2.24-9.28,1.067-12.693l213.12-213.333&#10;&#9;&#9;&#9;c3.307-3.307,8.533-3.84,12.48-1.173c27.52,18.56,58.88,15.147,83.84-9.067C515.076,145.807,518.703,107.087,498.223,80.207z&#10;&#9;&#9;&#9; M475.716,155.514c-10.24,9.92-31.36,24.107-57.173,6.72c-12.373-8.32-28.907-6.72-39.467,3.84L165.743,379.407&#10;&#9;&#9;&#9;c-10.56,10.667-12.053,27.2-3.733,39.68c15.68,23.467,5.867,42.88-5.227,55.04c-17.813,19.733-47.147,22.72-65.6,6.72&#10;&#9;&#9;&#9;c-5.12-4.48-5.227-20.053-5.227-30.4c0-5.12,0-9.813-0.427-13.653c-0.533-5.12-4.48-9.067-9.6-9.6&#10;&#9;&#9;&#9;c-21.76-2.027-39.68-9.707-48.107-20.267c-5.227-6.507-7.04-14.4-5.653-24c1.28-9.707,5.653-18.773,12.373-25.813&#10;&#9;&#9;&#9;c9.707-9.707,22.187-14.827,34.453-14.827c7.36,0,14.72,1.92,21.12,5.44c12.267,6.827,27.52,4.8,37.44-5.12l214.613-214.613&#10;&#9;&#9;&#9;c9.92-9.92,11.84-25.173,4.907-37.973c-9.173-16.96-5.973-38.507,8-53.76c16.32-17.707,44.907-19.627,65.067-4.48&#10;&#9;&#9;&#9;c6.507,4.907,6.4,18.347,6.4,30.293c0,5.013,0,9.813,0.427,13.973c0.533,5.12,4.48,9.067,9.6,9.6&#10;&#9;&#9;&#9;c3.733,0.32,8.107,0.427,12.693,0.533c12.16,0.213,27.413,0.533,32.533,7.36C496.196,112.207,493.529,138.234,475.716,155.514z" style="fill: rgb(255, 255, 255);"/>
      </g>
    </g>
    <g transform="matrix(-0.004254, -0.243706, 0.243706, -0.004254, 148.761505, 102.531265)" style="transform-origin: 255.892px 255.891px;">
      <g>
        <path d="M498.223,80.207c-11.413-15.04-32.32-15.467-49.067-15.787h-1.813c0-0.853,0-1.813,0-2.667&#10;&#9;&#9;&#9;c0-16.107,0-36.053-14.933-47.36c-28.8-21.653-69.867-18.56-93.44,7.147c-20.16,21.867-24.64,53.333-11.093,78.4&#10;&#9;&#9;&#9;c2.453,4.48,1.92,9.6-1.173,12.693l-214.4,214.4c-3.2,3.2-8.107,3.84-12.053,1.493c-26.133-14.613-58.56-9.387-80.96,12.907&#10;&#9;&#9;&#9;C9.263,351.781,2.756,365.007,0.943,379.301c-2.133,15.467,1.173,29.013,10.027,40.213c13.973,17.707,37.867,24.533,53.44,27.093&#10;&#9;&#9;&#9;c0,1.067,0,2.133,0,3.307c0,15.893,0,35.52,12.587,46.4c11.733,10.027,26.667,15.573,42.027,15.467&#10;&#9;&#9;&#9;c20.373-0.107,39.68-8.853,53.227-24c22.4-24.853,24.96-54.4,7.04-81.173c-2.667-3.947-2.24-9.28,1.067-12.693l213.12-213.333&#10;&#9;&#9;&#9;c3.307-3.307,8.533-3.84,12.48-1.173c27.52,18.56,58.88,15.147,83.84-9.067C515.076,145.807,518.703,107.087,498.223,80.207z&#10;&#9;&#9;&#9; M475.716,155.514c-10.24,9.92-31.36,24.107-57.173,6.72c-12.373-8.32-28.907-6.72-39.467,3.84L165.743,379.407&#10;&#9;&#9;&#9;c-10.56,10.667-12.053,27.2-3.733,39.68c15.68,23.467,5.867,42.88-5.227,55.04c-17.813,19.733-47.147,22.72-65.6,6.72&#10;&#9;&#9;&#9;c-5.12-4.48-5.227-20.053-5.227-30.4c0-5.12,0-9.813-0.427-13.653c-0.533-5.12-4.48-9.067-9.6-9.6&#10;&#9;&#9;&#9;c-21.76-2.027-39.68-9.707-48.107-20.267c-5.227-6.507-7.04-14.4-5.653-24c1.28-9.707,5.653-18.773,12.373-25.813&#10;&#9;&#9;&#9;c9.707-9.707,22.187-14.827,34.453-14.827c7.36,0,14.72,1.92,21.12,5.44c12.267,6.827,27.52,4.8,37.44-5.12l214.613-214.613&#10;&#9;&#9;&#9;c9.92-9.92,11.84-25.173,4.907-37.973c-9.173-16.96-5.973-38.507,8-53.76c16.32-17.707,44.907-19.627,65.067-4.48&#10;&#9;&#9;&#9;c6.507,4.907,6.4,18.347,6.4,30.293c0,5.013,0,9.813,0.427,13.973c0.533,5.12,4.48,9.067,9.6,9.6&#10;&#9;&#9;&#9;c3.733,0.32,8.107,0.427,12.693,0.533c12.16,0.213,27.413,0.533,32.533,7.36C496.196,112.207,493.529,138.234,475.716,155.514z" style="fill: rgb(255, 255, 255);"/>
      </g>
    </g>
    <g transform="matrix(-0.081363, 0.229762, -0.229762, -0.081363, 288.912476, 288.077637)" style="transform-origin: 255.892px 255.891px;">
      <g>
        <path d="M498.223,80.207c-11.413-15.04-32.32-15.467-49.067-15.787h-1.813c0-0.853,0-1.813,0-2.667&#10;&#9;&#9;&#9;c0-16.107,0-36.053-14.933-47.36c-28.8-21.653-69.867-18.56-93.44,7.147c-20.16,21.867-24.64,53.333-11.093,78.4&#10;&#9;&#9;&#9;c2.453,4.48,1.92,9.6-1.173,12.693l-214.4,214.4c-3.2,3.2-8.107,3.84-12.053,1.493c-26.133-14.613-58.56-9.387-80.96,12.907&#10;&#9;&#9;&#9;C9.263,351.781,2.756,365.007,0.943,379.301c-2.133,15.467,1.173,29.013,10.027,40.213c13.973,17.707,37.867,24.533,53.44,27.093&#10;&#9;&#9;&#9;c0,1.067,0,2.133,0,3.307c0,15.893,0,35.52,12.587,46.4c11.733,10.027,26.667,15.573,42.027,15.467&#10;&#9;&#9;&#9;c20.373-0.107,39.68-8.853,53.227-24c22.4-24.853,24.96-54.4,7.04-81.173c-2.667-3.947-2.24-9.28,1.067-12.693l213.12-213.333&#10;&#9;&#9;&#9;c3.307-3.307,8.533-3.84,12.48-1.173c27.52,18.56,58.88,15.147,83.84-9.067C515.076,145.807,518.703,107.087,498.223,80.207z&#10;&#9;&#9;&#9; M475.716,155.514c-10.24,9.92-31.36,24.107-57.173,6.72c-12.373-8.32-28.907-6.72-39.467,3.84L165.743,379.407&#10;&#9;&#9;&#9;c-10.56,10.667-12.053,27.2-3.733,39.68c15.68,23.467,5.867,42.88-5.227,55.04c-17.813,19.733-47.147,22.72-65.6,6.72&#10;&#9;&#9;&#9;c-5.12-4.48-5.227-20.053-5.227-30.4c0-5.12,0-9.813-0.427-13.653c-0.533-5.12-4.48-9.067-9.6-9.6&#10;&#9;&#9;&#9;c-21.76-2.027-39.68-9.707-48.107-20.267c-5.227-6.507-7.04-14.4-5.653-24c1.28-9.707,5.653-18.773,12.373-25.813&#10;&#9;&#9;&#9;c9.707-9.707,22.187-14.827,34.453-14.827c7.36,0,14.72,1.92,21.12,5.44c12.267,6.827,27.52,4.8,37.44-5.12l214.613-214.613&#10;&#9;&#9;&#9;c9.92-9.92,11.84-25.173,4.907-37.973c-9.173-16.96-5.973-38.507,8-53.76c16.32-17.707,44.907-19.627,65.067-4.48&#10;&#9;&#9;&#9;c6.507,4.907,6.4,18.347,6.4,30.293c0,5.013,0,9.813,0.427,13.973c0.533,5.12,4.48,9.067,9.6,9.6&#10;&#9;&#9;&#9;c3.733,0.32,8.107,0.427,12.693,0.533c12.16,0.213,27.413,0.533,32.533,7.36C496.196,112.207,493.529,138.234,475.716,155.514z" style="stroke: rgb(255, 255, 255); paint-order: stroke; fill: rgb(255, 255, 255); fill-rule: nonzero;"/>
      </g>
    </g>
  </g>
</svg>